<svg width="12" height="16" viewBox="0 0 12 16" fill="none" xmlns="http://www.w3.org/2000/svg">
<path d="M5.5 2.5C5.675 1.975 5.83915 1.22665 5.31728 1.05165C4.7954 0.87665 4.22665 1.16103 4.05165 1.6829L0.05165 13.6829C-0.12335 14.2079 0.161025 14.7735 0.6829 14.9485C1.20478 15.1235 1.325 14.5219 1.5 14L5.5 2.5ZM8.16415 1.01415C7.6204 0.923525 7.10478 1.29228 7.01415 1.83603L5.01415 13.836C4.92353 14.3798 5.29228 14.8954 5.83603 14.986C6.37978 15.0766 6.40937 14.5454 6.5 14.0016L8.5 2C8.59063 1.45625 8.7079 1.10478 8.16415 1.01415ZM10.9985 1.00165C10.4454 1.00165 9.99852 1.44853 9.99852 2.00165V14.0016C9.99852 14.5548 10.4454 15.0016 10.9985 15.0016C11.5516 15.0016 11.5 14.5531 11.5 14V2.00165C11.5 1.44853 11.5516 1.00165 10.9985 1.00165Z" fill="black"/>
</svg>
