<svg width="17" height="17" viewBox="0 0 17 17" fill="none" xmlns="http://www.w3.org/2000/svg">
<path fill-rule="evenodd" clip-rule="evenodd" d="M10.725 15.5846H5.86795C5.06277 15.5846 4.29058 15.2648 3.72123 14.6954C3.15189 14.1261 2.83203 13.3539 2.83203 12.5487V4.45389C2.83203 3.64871 3.15189 2.87651 3.72123 2.30717C4.29058 1.73782 5.06277 1.41797 5.86795 1.41797H8.70695C9.30727 1.4181 9.88716 1.63606 10.3389 2.03139L12.9137 4.28389C13.1799 4.5166 13.3931 4.80355 13.5392 5.12546C13.6854 5.44738 13.7609 5.79682 13.7609 6.15034V12.5487C13.7609 12.9474 13.6824 13.3422 13.5298 13.7105C13.3772 14.0788 13.1536 14.4135 12.8717 14.6954C12.5898 14.9773 12.2551 15.201 11.8868 15.3535C11.5185 15.5061 11.1237 15.5846 10.725 15.5846ZM10.725 14.168H5.86795C5.65531 14.168 5.44474 14.1261 5.24829 14.0447C5.05183 13.9633 4.87333 13.8441 4.72297 13.6937C4.5726 13.5433 4.45333 13.3648 4.37196 13.1684C4.29058 12.9719 4.2487 12.7614 4.2487 12.5487V4.45389C4.2487 4.02443 4.4193 3.61257 4.72297 3.3089C5.02663 3.00523 5.4385 2.83464 5.86795 2.83464H8.70695C8.96411 2.83474 9.21251 2.92811 9.40607 3.09743L11.9809 5.34993C12.095 5.44969 12.1865 5.57274 12.2492 5.71079C12.3119 5.84885 12.3443 5.99873 12.3442 6.15034V12.5487C12.3442 12.7614 12.3024 12.9719 12.221 13.1684C12.1396 13.3648 12.0203 13.5433 11.87 13.6937C11.7196 13.8441 11.5411 13.9633 11.3447 14.0447C11.1482 14.1261 10.9376 14.168 10.725 14.168Z" fill="black"/>
<path fill-rule="evenodd" clip-rule="evenodd" d="M9.20833 2.125C9.39619 2.125 9.57636 2.19963 9.7092 2.33247C9.84204 2.4653 9.91667 2.64547 9.91667 2.83333V4.95833C9.91667 5.1462 9.99129 5.32636 10.1241 5.4592C10.257 5.59204 10.4371 5.66667 10.625 5.66667H12.3958C12.5837 5.66667 12.7639 5.74129 12.8967 5.87413C13.0295 6.00697 13.1042 6.18714 13.1042 6.375C13.1042 6.56286 13.0295 6.74303 12.8967 6.87587C12.7639 7.00871 12.5837 7.08333 12.3958 7.08333H10.625C10.0614 7.08333 9.52091 6.85945 9.1224 6.46094C8.72388 6.06242 8.5 5.52192 8.5 4.95833V2.83333C8.5 2.64547 8.57463 2.4653 8.70747 2.33247C8.8403 2.19963 9.02047 2.125 9.20833 2.125Z" fill="black"/>
</svg>
