<svg width="30" height="30" viewBox="0 0 30 30" fill="none" xmlns="http://www.w3.org/2000/svg">
<path d="M10.2414 15.118L9.58984 15.5164C9.58984 15.5164 9.93672 16.7844 10.075 17.4758C10.2133 18.1672 10.375 18.6969 10.5602 19.0438C10.8484 19.5852 11.5961 19.6273 11.8844 19.407C12.4844 18.9523 12.8008 17.5742 12.8008 17.5742C12.8008 17.5742 13.1172 16.4398 13.2906 15.8281C13.4313 15.3289 13.7641 14.5836 13.7641 14.5836L14.8938 15.1203C14.8938 15.1203 14.8305 16.25 15.25 17.1898C15.6531 18.0922 16.7242 18.9758 17.1742 19.2523C17.6242 19.5289 18.0555 19.6836 17.9688 20.1523C17.882 20.6188 17.2609 21.6383 16.8461 22.1586C16.4312 22.6766 15.3813 24.2141 15.1516 24.7508C14.8797 25.3836 14.5984 26.082 15.2547 26.2719C15.9109 26.4617 16.8859 25.107 16.8859 25.107L20.0781 20.6352C20.0781 20.6352 20.0945 20.3938 19.8367 20.0984C19.5766 19.8055 19.4898 19.632 19.3516 19.2523C19.2133 18.8727 19.1617 17.6797 19.1617 17.6797C19.1617 17.6797 20.2844 15.5891 20.493 15.3289C20.7016 15.0688 21.0625 14.5859 21.0625 14.5859C21.0625 14.5859 21.3883 15.6617 21.9789 16.6602C22.6469 17.7898 23.9641 18.9336 25.1945 19.4023C26.4625 19.8875 27.6672 19.9953 28.5648 20.0305C29.4648 20.0656 29.9828 19.7586 29.8609 19.5523C29.7391 19.3437 27.4398 19.0461 27.4398 19.0461L23.4133 16.4492L21.6836 12.1273L18.3836 9.39453L13.8367 9.51641L10.7758 14.4078C10.7758 14.4078 11.207 15.4461 11.2422 15.6359C11.2773 15.8258 11.2258 16.9156 11.2258 16.9156C11.2258 16.9156 11.0992 16.4844 11.0008 16.1539C10.9305 15.9219 10.9141 15.5141 10.9141 15.5141L10.2414 15.118Z" fill="#865B52"/>
<path d="M7.82098 8.87412C7.82098 8.87412 9.26941 7.45849 9.74051 6.83505C10.4905 5.84365 11.0366 4.51943 10.4319 4.06943C9.82723 3.61943 8.73738 4.65771 8.1327 5.46865C7.52801 6.27959 6.92801 7.57802 6.78973 7.2499C6.65145 6.92177 7.30301 6.13896 7.72254 5.46396C7.93816 5.11709 8.51707 4.47959 8.77019 3.93115C8.99051 3.45537 8.93895 3.05224 8.59676 2.87177C7.83504 2.46865 6.62566 3.6288 6.22957 4.4163C5.67176 5.52255 5.4866 6.80224 5.4866 6.80224C5.4866 6.80224 4.5702 6.69912 3.75691 7.32021C3.17098 7.76787 2.85691 8.70302 2.54754 8.87646C2.23582 9.0499 1.07332 9.5913 1.07332 9.5913C1.07332 9.5913 0.152227 10.639 1.01004 11.5038C1.40613 11.9022 1.75301 12.1952 2.56629 12.2116C3.2741 12.2257 4.76238 11.3655 5.40223 11.4851C6.04207 11.6046 6.6702 13.2335 7.14832 13.8522C7.78816 14.6819 8.64129 15.2819 9.28113 15.453C9.92098 15.6265 11.2452 15.6311 11.2452 15.6311C11.2452 15.6311 11.2288 15.0429 11.1233 14.7851C11.0202 14.5249 10.8819 14.2999 11.0366 14.1804C11.1913 14.0585 11.5382 14.6116 11.5382 15.0968C11.5382 15.5819 11.435 16.7397 11.4163 17.2741C11.3999 17.8108 11.278 18.8468 11.9694 19.1069C12.6608 19.3671 13.3124 18.8257 13.4507 18.6335C13.5889 18.4436 13.8889 18.1554 13.8374 18.0171C13.7858 17.8788 13.3874 17.5155 13.1108 17.4804C12.8343 17.4452 12.5413 17.5038 12.5413 17.5038C12.5413 17.5038 12.6327 16.8124 12.771 16.3272C12.9093 15.8421 13.1108 14.7147 13.0593 14.0233C13.0077 13.3319 12.403 12.589 12.6093 12.3476C12.8155 12.1061 13.1108 12.3124 13.3358 12.9007C13.5608 13.489 13.5608 14.0233 13.5444 14.4733C13.528 14.9233 13.4413 15.3382 13.4413 15.3382C13.4413 15.3382 14.2522 15.3007 14.6179 15.2866C15.0327 15.2702 15.7077 15.1647 15.7077 15.1647C15.7077 15.1647 15.5389 13.8147 15.6046 13.0905C15.6913 12.1226 16.3241 11.1265 16.8093 10.6577C17.2944 10.1913 17.9554 9.6663 18.0772 9.96162C18.1991 10.2546 17.1561 10.8897 16.7296 11.621C16.3241 12.3147 15.8835 13.7468 16.3827 15.2351C16.8843 16.721 17.8522 17.914 18.4218 18.3476C18.9913 18.7788 19.9429 19.039 19.9077 19.8171C19.8725 20.5952 18.2835 22.5147 17.8171 23.2226C17.3507 23.9304 16.6757 24.6921 16.5561 25.3483C16.4343 26.0046 16.3475 26.7147 17.2124 26.3327C18.0772 25.953 19.1647 23.8436 19.6335 23.2202C20.0999 22.5968 20.9132 21.3007 21.4311 20.628C21.9491 19.953 22.1577 19.8851 22.1061 19.4186C22.0546 18.9522 20.9835 18.4858 20.7397 17.7944C20.496 17.103 20.4632 15.2702 20.7397 14.6655C21.0163 14.0608 21.3093 13.6272 21.3093 13.6272C21.3093 13.6272 22.3429 16.0835 23.0554 17.0163C24.0116 18.2679 25.6991 19.2288 27.7405 19.5054C29.7796 19.7819 30.2952 19.571 29.5218 19.2968C29.2288 19.1936 28.4343 18.8866 27.6327 18.4835C26.871 18.1038 25.685 17.5272 24.7686 16.1491C23.7538 14.6233 23.3343 11.7593 21.5366 9.59834C20.0507 7.8124 17.203 6.24208 13.9475 7.55927C11.6835 8.47568 10.8889 10.8616 9.52254 10.6179C8.1491 10.3788 7.82098 8.87412 7.82098 8.87412Z" fill="#D27856"/>
<path d="M7.35302 8.10491C7.71161 8.36038 8.64442 7.28225 9.07099 6.7221C9.68271 5.91585 10.0413 5.1635 9.78583 4.97131C9.41786 4.69475 8.64442 5.63928 8.20614 6.29553C7.63896 7.14397 7.11161 7.93147 7.35302 8.10491Z" fill="#FFD2AF"/>
<path d="M5.05627 9.20559C5.09377 9.69309 4.86174 9.92278 4.60627 9.93918C4.3508 9.95559 4.11643 9.64621 4.09533 9.3134C4.07424 8.98059 4.26643 8.697 4.52424 8.68059C4.77971 8.66418 5.03049 8.87278 5.05627 9.20559Z" fill="#010102"/>
<path d="M1.2713 9.54555C1.50333 9.70023 1.54083 10.3049 1.45646 10.5721C1.36505 10.8604 1.10021 11.3432 0.788489 11.2166C0.615051 11.1463 0.165051 10.2838 0.258801 10.0518C0.347864 9.82211 1.13302 9.45414 1.2713 9.54555ZM1.40958 11.7932C1.40958 11.7932 1.8713 11.6432 2.03302 11.4932C2.19474 11.3432 2.42443 11.1463 2.59786 11.2166C2.7713 11.287 2.82755 11.5401 2.50646 11.7932C2.26271 11.9854 1.94161 12.0815 1.94161 12.0815C1.94161 12.0815 1.74474 12.0932 1.58536 12.0229C1.49161 11.9854 1.38615 11.8518 1.40958 11.7932Z" fill="#2C302B"/>
</svg>
