<svg width="30" height="18" viewBox="0 0 30 18" fill="none" xmlns="http://www.w3.org/2000/svg">
<path d="M24.7549 7.18461C24.0605 7.18603 23.3732 7.32555 22.7332 7.59504C22.0932 7.86453 21.5131 8.25861 21.0268 8.75436C21.0128 8.25101 20.8894 7.75675 20.6652 7.30585C20.4411 6.85495 20.1215 6.45821 19.7287 6.14315C20.1345 5.82294 20.4622 5.4147 20.6871 4.94927C20.912 4.48383 21.0281 3.97338 21.0268 3.45647C21.0268 2.54237 20.6647 1.66549 20.0198 1.01771C19.3748 0.369927 18.4995 0.00400496 17.5854 1.32581e-05H3.45773C2.74205 -0.00197108 2.04349 0.218836 1.45896 0.6318C0.87444 1.04476 0.432932 1.62941 0.195692 2.30464C-0.0415487 2.97986 -0.0627593 3.71218 0.135002 4.4C0.332764 5.08782 0.739693 5.69704 1.29934 6.14315C0.894306 6.46575 0.567222 6.87552 0.342415 7.34197C0.117607 7.80843 0.000861483 8.31957 0.000861483 8.83737C0.000861483 9.35518 0.117607 9.86632 0.342415 10.3328C0.567222 10.7992 0.894306 11.209 1.29934 11.5316C0.739457 11.9763 0.3322 12.5845 0.13429 13.2715C-0.0636205 13.9586 -0.0423299 14.6903 0.195197 15.3646C0.432723 16.039 0.874659 16.6225 1.45945 17.0339C2.04424 17.4452 2.74276 17.664 3.45773 17.6596H17.5854C18.2342 17.6596 18.8699 17.477 19.4197 17.1327C19.9696 16.7883 20.4114 16.2962 20.6947 15.7126C21.1797 16.3247 21.7968 16.8191 22.5 17.1589C23.2031 17.4987 23.974 17.6751 24.7549 17.6747C25.4437 17.6747 26.1258 17.5391 26.7621 17.2755C27.3985 17.0119 27.9767 16.6255 28.4638 16.1385C28.9508 15.6514 29.3372 15.0732 29.6007 14.4369C29.8643 13.8005 30 13.1185 30 12.4297C30 11.7409 29.8643 11.0588 29.6007 10.4225C29.3372 9.78612 28.9508 9.2079 28.4638 8.72086C27.9767 8.23381 27.3985 7.84746 26.7621 7.58387C26.1258 7.32028 25.4437 7.18461 24.7549 7.18461ZM17.5854 16.1503H3.45773C2.94534 16.1503 2.45393 15.9467 2.09161 15.5844C1.72929 15.2221 1.52574 14.7307 1.52574 14.2183C1.52574 13.7059 1.72929 13.2145 2.09161 12.8522C2.45393 12.4898 2.94534 12.2863 3.45773 12.2863H17.5854C18.0978 12.2863 18.5892 12.4898 18.9516 12.8522C19.3139 13.2145 19.5174 13.7059 19.5174 14.2183C19.5174 14.7307 19.3139 15.2221 18.9516 15.5844C18.5892 15.9467 18.0978 16.1503 17.5854 16.1503ZM17.5854 10.7769H3.45773C2.94334 10.7769 2.45001 10.5726 2.08627 10.2088C1.72254 9.8451 1.51819 9.35177 1.51819 8.83737C1.51819 8.32298 1.72254 7.82965 2.08627 7.46591C2.45001 7.10218 2.94334 6.89783 3.45773 6.89783H17.5854C18.0998 6.89783 18.5932 7.10218 18.9569 7.46591C19.3206 7.82965 19.525 8.32298 19.525 8.83737C19.525 9.35177 19.3206 9.8451 18.9569 10.2088C18.5932 10.5726 18.0998 10.7769 17.5854 10.7769ZM17.5854 5.38846H3.45773C2.94334 5.38846 2.45001 5.18412 2.08627 4.82039C1.72254 4.45665 1.51819 3.96332 1.51819 3.44892C1.51819 2.93453 1.72254 2.4412 2.08627 2.07746C2.45001 1.71373 2.94334 1.50938 3.45773 1.50938H17.5854C18.0998 1.50938 18.5932 1.71373 18.9569 2.07746C19.3206 2.4412 19.525 2.93453 19.525 3.44892C19.525 3.96332 19.3206 4.45665 18.9569 4.82039C18.5932 5.18412 18.0998 5.38846 17.5854 5.38846ZM24.7549 16.1654C24.0167 16.1639 23.2955 15.9437 22.6823 15.5326C22.0692 15.1216 21.5915 14.5381 21.3097 13.8558C21.0279 13.1735 20.9546 12.423 21.099 11.699C21.2433 10.9751 21.599 10.3101 22.121 9.78815C22.643 9.26616 23.3079 8.91052 24.0318 8.76614C24.7558 8.62176 25.5063 8.6951 26.1886 8.97691C26.8709 9.25872 27.4544 9.73636 27.8655 10.3495C28.2765 10.9627 28.4967 11.6839 28.4982 12.4221C28.4988 12.9139 28.4024 13.4009 28.2145 13.8553C28.0266 14.3097 27.7508 14.7226 27.4031 15.0703C27.0554 15.418 26.6425 15.6937 26.1881 15.8816C25.7337 16.0695 25.2467 16.166 24.7549 16.1654Z" fill="black"/>
</svg>
