<svg width="20" height="17" viewBox="0 0 20 17" fill="none" xmlns="http://www.w3.org/2000/svg">
<path d="M11.94 0.0266882C12.1321 0.0780323 12.296 0.203585 12.3956 0.375736C12.4952 0.547887 12.5223 0.75254 12.471 0.944688L8.498 15.7747C8.44642 15.967 8.32056 16.1309 8.14812 16.2304C7.97568 16.3299 7.77078 16.3568 7.5785 16.3052C7.38622 16.2536 7.2223 16.1277 7.12282 15.9553C7.02333 15.7829 6.99642 15.578 7.048 15.3857L11.022 0.555688C11.0475 0.460535 11.0915 0.371342 11.1515 0.293206C11.2116 0.215069 11.2864 0.14952 11.3717 0.100302C11.457 0.051084 11.5512 0.0191622 11.6489 0.00635973C11.7466 -0.00644271 11.8459 0.00012525 11.941 0.0256883M14.203 3.07869C14.336 2.93086 14.5223 2.84192 14.7209 2.83141C14.9195 2.82091 15.1141 2.88971 15.262 3.02269L16.999 4.58669C17.736 5.24869 18.346 5.79869 18.766 6.29669C19.206 6.82169 19.52 7.38469 19.52 8.08069C19.52 8.77569 19.207 9.33869 18.766 9.86269C18.346 10.3617 17.736 10.9117 16.999 11.5737L15.262 13.1377C15.1141 13.2708 14.9195 13.3398 14.7208 13.3294C14.5221 13.319 14.3356 13.23 14.2025 13.0822C14.0694 12.9343 14.0004 12.7396 14.0108 12.5409C14.0212 12.3423 14.1101 12.1558 14.258 12.0227L15.955 10.4957C16.743 9.78669 17.274 9.30569 17.618 8.89769C17.948 8.50469 18.02 8.27569 18.02 8.07969C18.02 7.88369 17.948 7.65569 17.618 7.26269C17.274 6.85369 16.743 6.37269 15.955 5.66469L14.258 4.13769C14.1847 4.07181 14.125 3.99211 14.0825 3.90316C14.04 3.81421 14.0154 3.71775 14.0102 3.6193C14.005 3.52085 14.0193 3.42234 14.0522 3.3294C14.0851 3.23647 14.136 3.15093 14.202 3.07769M5.262 4.13769C5.40986 4.00455 5.49877 3.81813 5.50918 3.61943C5.51959 3.42074 5.45064 3.22605 5.3175 3.07819C5.18436 2.93033 4.99794 2.84142 4.79924 2.83101C4.60055 2.8206 4.40586 2.88955 4.258 3.02269L2.521 4.58669C1.784 5.24869 1.174 5.79869 0.754 6.29669C0.314 6.82169 0 7.38469 0 8.08069C0 8.77569 0.313 9.33869 0.754 9.86269C1.174 10.3617 1.784 10.9117 2.521 11.5737L4.258 13.1377C4.40586 13.2708 4.60055 13.3398 4.79924 13.3294C4.99794 13.319 5.18436 13.23 5.3175 13.0822C5.45064 12.9343 5.51959 12.7396 5.50918 12.5409C5.49877 12.3423 5.40986 12.1558 5.262 12.0227L3.565 10.4957C2.777 9.78669 2.246 9.30569 1.902 8.89769C1.572 8.50469 1.5 8.27569 1.5 8.07969C1.5 7.88369 1.572 7.65569 1.902 7.26269C2.246 6.85369 2.777 6.37269 3.565 5.66469L5.262 4.13769Z" fill="black"/>
</svg>
