<svg width="24" height="24" viewBox="0 0 24 24" fill="none" xmlns="http://www.w3.org/2000/svg">
<path d="M4.252 10C4.08401 10.6534 3.99934 11.3254 4 12C4 12.69 4.088 13.36 4.252 14H7.1C6.96633 12.67 6.96633 11.33 7.1 10H4.252ZM5.07 8H7.416C7.682 6.783 8.066 5.693 8.537 4.786C7.08536 5.48568 5.87746 6.60543 5.07 8ZM19.748 10H16.9C17.0337 11.33 17.0337 12.67 16.9 14H19.748C20.0845 12.6879 20.0845 11.3121 19.748 10ZM18.93 8C18.1225 6.60543 16.9146 5.48568 15.463 4.786C15.935 5.693 16.318 6.783 16.584 8H18.93ZM9.112 10C9.03757 10.6641 9.00018 11.3318 9 12C9 12.685 9.038 13.355 9.112 14H14.888C15.0383 12.6709 15.0383 11.3291 14.888 10H9.112ZM9.47 8H14.53C14.3477 7.24839 14.0852 6.51854 13.747 5.823C13.119 4.568 12.447 4 12 4C11.553 4 10.881 4.568 10.253 5.823C9.938 6.455 9.673 7.19 9.47 8ZM5.07 16C5.87746 17.3946 7.08536 18.5143 8.537 19.214C8.065 18.307 7.682 17.217 7.416 16H5.07ZM18.93 16H16.584C16.318 17.217 15.934 18.307 15.463 19.214C16.9146 18.5143 18.1225 17.3946 18.93 16ZM9.47 16C9.673 16.81 9.938 17.545 10.253 18.177C10.881 19.432 11.553 20 12 20C12.447 20 13.119 19.432 13.747 18.177C14.062 17.545 14.327 16.81 14.53 16H9.47ZM12 22C6.477 22 2 17.523 2 12C2 6.477 6.477 2 12 2C17.523 2 22 6.477 22 12C22 17.523 17.523 22 12 22Z" fill="white"/>
</svg>
